/vscmnt/brussel_pixiu_data/_data_brussel/112/vsc11236/PredSimResults/SUBJ06opt3D/weighted-trackIG/worker_01.mot
version=1
nRows=4
nColumns=50
inDegrees=yes
endheader
                time	         pelvis_tilt	         pelvis_list	     pelvis_rotation	           pelvis_tx	           pelvis_ty	           pelvis_tz	       hip_flexion_r	     hip_adduction_r	      hip_rotation_r	        knee_angle_r	       ankle_angle_r	         mtp_angle_r	       hip_flexion_l	     hip_adduction_l	      hip_rotation_l	        knee_angle_l	       ankle_angle_l	         mtp_angle_l	    lumbar_extension	      lumbar_bending	     lumbar_rotation	 ercspn_r/activation	 intobl_r/activation	 extobl_r/activation	    abd_r/activation	    add_r/activation	hamstrings_r/activation	bifemsh_r/activation	glut_max_r/activation	iliopsoas_r/activation	rect_fem_r/activation	  vasti_r/activation	gastroc_r/activation	 soleus_r/activation	tib_ant_r/activation	 ercspn_l/activation	 intobl_l/activation	 extobl_l/activation	    abd_l/activation	    add_l/activation	hamstrings_l/activation	bifemsh_l/activation	glut_max_l/activation	iliopsoas_l/activation	rect_fem_l/activation	  vasti_l/activation	gastroc_l/activation	 soleus_l/activation	tib_ant_l/activation	
          0.00000000	         -6.18728057	         -1.02384322	          5.09426598	          0.00000000	          0.92846872	         -0.01068694	         32.85481929	         -1.17157237	         -7.90822849	         -8.57613001	          0.38929462	          0.22736773	        -10.42196306	         -0.80374381	         -6.37044898	        -10.84686062	          8.58528483	         33.43559383	         -5.70179008	         -0.20218427	         -8.04152697	          0.18677552	          0.16377660	          0.00999999	          0.00999999	          0.31504642	          0.06461635	          0.10871947	          0.01466119	          0.11726935	          0.01019758	          0.00999999	          0.00999999	          0.00999999	          0.52081612	          0.13087228	          0.00999999	          0.00999999	          0.08024005	          0.00999999	          0.00999999	          0.24611003	          0.01535237	          0.58820883	          0.01730706	          0.00999999	          0.24642323	          0.37943385	          0.02330607	
          0.01203758	         -6.27174395	         -0.97253909	          5.12531770	          0.01700566	          0.92664592	         -0.01000163	         33.05087819	         -1.06453717	         -7.96014644	        -10.39865278	          0.10101903	          0.22498053	        -10.85070551	         -0.93303696	         -6.75311878	        -11.74156636	          7.54824187	         35.36428226	         -5.38541961	          0.13963363	         -8.52177808	          0.17354617	          0.13640930	          0.00999999	          0.00999999	          0.42546280	          0.06540661	          0.09055229	          0.11269783	          0.09767348	          0.00999999	          0.00999999	          0.01441502	          0.01730706	          0.53022720	          0.18538027	          0.00999999	          0.00999999	          0.06683182	          0.00999999	          0.01000000	          0.20498469	          0.01441502	          0.59177318	          0.01441502	          0.00999999	          0.20825946	          0.35499021	          0.01941159	
          0.02407517	         -6.32992831	         -0.97464594	          5.13970721	          0.03449657	          0.92502778	         -0.00927466	         33.00811027	         -0.99233202	         -7.80870096	        -12.14665578	         -0.12158027	          0.19564750	        -11.14589601	         -1.15212825	         -7.13138670	        -12.95656215	          6.38934903	         37.32751787	         -5.03558334	          0.54725217	         -8.96136872	          0.14787124	          0.11361511	          0.00999999	          0.04218810	          0.35436736	          0.07088793	          0.07542088	          0.10772303	          0.08135210	          0.00999999	          0.00999999	          0.01200625	          0.01441502	          0.57525974	          0.16599211	          0.00999999	          0.00999999	          0.05566413	          0.00999999	          0.00999999	          0.20804652	          0.01200625	          0.59720393	          0.01200625	          0.00999999	          0.17345901	          0.32668457	          0.01616789	
          0.03611275	         -6.36565126	         -1.00165773	          5.12263084	          0.05222082	          0.92368999	         -0.00840995	         32.81402205	         -0.90907527	         -7.78096186	        -13.67973728	         -0.43786369	          0.18414811	        -11.21871231	         -1.44115404	         -7.51880346	        -14.61626930	          5.08155408	         39.31726155	         -4.68494464	          0.97639711	         -9.34578289	          0.16142180	          0.09462986	          0.00999999	          0.08689795	          0.32767482	          0.07267892	          0.06281794	          0.12945141	          0.06775805	          0.00999999	          0.04413523	          0.00999999	          0.01200625	          0.62721207	          0.17482552	          0.00999999	          0.00999999	          0.04636258	          0.00999999	          0.00999999	          0.19626736	          0.00999999	          0.52865233	          0.00999999	          0.00999999	          0.14447376	          0.28508000	          0.01346621	
